<svg xmlns="http://www.w3.org/2000/svg" viewBox="0 0 24 24" width="24px" height="24px"><path d="M18.75 3h-2.033a2.092 2.092 0 0 0-.78 4.033l2.065.826A.592.592 0 0 1 17.781 9H15.75a.75.75 0 0 0 0 1.5h2.031a2.092 2.092 0 0 0 .78-4.033l-2.065-.826a.592.592 0 0 1 .222-1.141h2.032a.75.75 0 0 0 0-1.5zm-.75.75V3a.75.75 0 0 0-1.5 0v.75a.75.75 0 0 0 1.5 0zm0 6.75v-.75a.75.75 0 0 0-1.5 0v.75a.75.75 0 0 0 1.5 0zm4.5-3.75a5.25 5.25 0 1 1-10.5 0 5.25 5.25 0 0 1 10.5 0zm1.5 0a6.75 6.75 0 1 0-13.5 0 6.75 6.75 0 0 0 13.5 0zm-12 10.5a5.25 5.25 0 1 1-10.5 0 5.25 5.25 0 0 1 10.5 0zm1.5 0a6.75 6.75 0 1 0-13.5 0 6.75 6.75 0 0 0 13.5 0zM8.25 19.5a2.25 2.25 0 0 1 0-4.5.75.75 0 0 0 0-1.5 3.75 3.75 0 1 0 0 7.5.75.75 0 0 0 0-1.5zM4.5 18h3.75a.75.75 0 0 0 0-1.5H4.5a.75.75 0 0 0 0 1.5zM.107 4.886l2.25 3.75a.75.75 0 0 0 1.029.257l3.75-2.25a.75.75 0 1 0-.772-1.286l-3.75 2.25 1.03.257-2.25-3.75a.75.75 0 1 0-1.287.772zM7.932.196a7.502 7.502 0 0 0-4.908 7.65.75.75 0 1 0 1.496-.12 6.002 6.002 0 0 1 3.926-6.121.75.75 0 1 0-.514-1.41zm15.961 18.918l-2.25-3.75a.75.75 0 0 0-1.029-.257l-3.75 2.25a.75.75 0 1 0 .772 1.286l3.75-2.25-1.03-.257 2.25 3.75a.75.75 0 1 0 1.287-.772zm-7.825 4.69a7.502 7.502 0 0 0 4.908-7.648.75.75 0 0 0-1.496.12 6.002 6.002 0 0 1-3.926 6.12.75.75 0 0 0 .514 1.409z"></path></svg>