<svg width="156" height="21" xmlns="http://www.w3.org/2000/svg">
  <g fill="#FFF" fill-rule="evenodd">
    <path d="M137.27034 20.74167c2.84618 0 5.15347-2.3073 5.15347-5.15348 0-2.84619-2.30729-5.15348-5.15347-5.15348-2.84619 0-5.15348 2.3073-5.15348 5.15348 0 2.84619 2.3073 5.15348 5.15348 5.15348zm0-2.51662c1.4563 0 2.63686-1.18056 2.63686-2.63686s-1.18057-2.63686-2.63686-2.63686c-1.4563 0-2.63686 1.18056-2.63686 2.63686s1.18056 2.63686 2.63686 2.63686zm-17.6324 2.51662c.94872 0 1.71782-.7691 1.71782-1.71783s-.7691-1.71782-1.71783-1.71782c-.94872 0-1.71782.7691-1.71782 1.71782 0 .94873.7691 1.71783 1.71783 1.71783zm36.2504-7.07422c-.2111-1.37918-1.1595-2.53249-2.47192-3.00601-1.31242-.47352-2.77872-.19142-3.82176.73526a3.79962 3.79962 0 0 0-2.53272-.96628c-.12776 0-.25338.00644-.37685.01933-.02791 0-.05583.00858-.08374.0118-.09663.01182-.19326.0247-.28774.04402l-.07515.01826c-.0977.02147-.19326.04509-.28774.07408l-.05475.01825c-.10093.0322-.20077.06871-.2974.10736l-.03221.01396a4.31637 4.31637 0 0 0-.30706.14709l-.01074.00537a3.80822 3.80822 0 0 0-.71934.50031l-.01073.02148a3.75775 3.75775 0 0 0-1.2508 2.53057l-.01395.02791v6.77146h2.53272V13.9702a1.20247 1.20247 0 0 1 1.20677-1.19818h.12132c.6637-.00178 1.20333.5345 1.2057 1.19818v6.77146h2.53594V13.9702a1.20248 1.20248 0 0 1 1.21536-1.19818h.12025a1.20247 1.20247 0 0 1 1.20677 1.19818v6.77146h2.53272V13.9702a1.18743 1.18743 0 0 0-.04295-.30276zm-26.4792 3.40773c-.65529.91867-1.83682 1.29684-2.90375.9294-1.06693-.36744-1.76505-1.39294-1.71572-2.5203.04934-1.12734.83438-2.08794 1.92934-2.36076 1.09495-.27283 2.23892.20712 2.81145 1.17952l2.16876-1.42794c-1.20335-1.935-3.53463-2.85004-5.73292-2.25018-2.19829.59986-3.74167 2.5722-3.79539 4.85022-.0537 2.27803 1.395 4.32091 3.56258 5.02372 2.16757.7028 4.53938-.10134 5.8326-1.97748l-2.15695-1.4462zm-79.51705-.00966a2.5499 2.5499 0 0 1-1.06398.23298 2.59928 2.59928 0 0 1-2.59392-2.61324v-4.20008h4.3096V7.04953h-4.3096V3.62568h-3.43566l.00001 11.0585a6.03923 6.03923 0 0 0 6.02957 6.0489 5.93938 5.93938 0 0 0 2.98901-.80416l-1.92503-2.8634z"/>
    <path d="M58.36311 7.03342c-2.87736-.00057-5.44826 1.79744-6.4349 4.50036-.98662 2.70292-.17857 5.73432 2.02254 7.58752 2.20111 1.8532 5.32586 2.13297 7.82117.70026v.91366h3.43565V13.8811c-.0006-3.78037-3.0641-6.8453-6.84446-6.84768zm0 10.27582c-1.89271 0-3.42706-1.53435-3.42706-3.42707 0-1.8927 1.53435-3.42706 3.42706-3.42706s3.42706 1.53435 3.42706 3.42706c0 1.89272-1.53435 3.42707-3.42706 3.42707zM90.8837 7.04094c-2.87737-.00057-5.44826 1.79743-6.4349 4.50035-.98663 2.70293-.17858 5.73433 2.02254 7.58752 2.2011 1.8532 5.32586 2.13297 7.82117.70026v.91367h3.43565v-6.85412c-.0006-3.78037-3.0641-6.84531-6.84446-6.84768zm0 10.27581c-1.38622.00044-2.63618-.83427-3.16696-2.11484s-.23784-2.75478.7422-3.73514c.98006-.98035 2.45418-1.27375 3.73492-.74337 1.28073.53038 2.11583 1.78008 2.11583 3.16629 0 1.8923-1.5337 3.42647-3.426 3.42706zm-24.59497 3.41847h3.4335V1.8939h-3.4335v18.69853zm-24.54343-.00107h-3.43565v-7.66472c-.02883-1.42232-1.1901-2.56028-2.6127-2.56028-1.42262 0-2.58388 1.13796-2.61271 2.56028v7.66472h-3.43565v-7.66472c.04409-3.30899 2.73907-5.9683 6.04835-5.9683 3.30929 0 6.00427 2.65931 6.04836 5.9683v7.66472zM80.26 16.06489c-.94982 1.1367-2.52655 1.52713-3.89705.965-1.3705-.56212-2.21895-1.94727-2.09705-3.42354.1219-1.47628 1.18608-2.70349 2.63022-3.03319 1.44415-.3297 2.93547.31409 3.68598 1.59119l2.8838-1.90142c-1.61867-2.59407-4.7602-3.80171-7.69968-2.95985-2.93948.84188-4.96541 3.52949-4.96541 6.58715 0 3.05766 2.02593 5.74527 4.9654 6.58714 2.93949.84187 6.08102-.36577 7.69969-2.95985l-2.88917-1.90356a3.4131 3.4131 0 0 1-.31673.45093zm-64.4163 4.66604l-1.84236-3.34224-2.05495-3.7234c2.85473-2.0925 3.85965-5.89499 2.41147-9.12468C12.90968 1.31093 9.40203-.46813 5.94065.27147 2.47928 1.01107.00501 4.06831.00322 7.60782v13.1231h3.43565V15.1072h4.07984a7.5477 7.5477 0 0 0 1.24005-.10737l3.1608 5.72788h3.92523l-.00107.00322zM3.43566 11.67155V7.60782c-.00608-1.6515.98407-3.14376 2.5081-3.77998 1.52405-.63622 3.28131-.29088 4.45126.87475 1.16994 1.16563 1.52176 2.92162.89117 4.448-.6306 1.52637-2.1192 2.52202-3.7707 2.52203H3.43563l.00003-.00107zm109.16778.85355s-1.03606-.15569-1.48807-.42946a1.48387 1.48387 0 0 1-.16748-.14065.1578.1578 0 0 0-.03114-.03328 1.11766 1.11766 0 0 1-.32853-.85247l.02254-.1342c-.00644.02576-.00966.0483-.01288.06763a1.02096 1.02096 0 0 1 .01933-.10092l-.00537.03328a1.24543 1.24543 0 0 1 .14709-.36182 1.41935 1.41935 0 0 1 .79771-.5658 2.29116 2.29116 0 0 1 .64955-.0698c.91045.02256 1.81875.33498 2.41677.59051l1.46015-2.59606c-.9448-.40906-3.05773-1.181-4.83138-.82993-2.20633.2727-3.81357 1.78547-3.95422 3.72339-.10737 1.54926.74296 2.96432 2.18486 3.76955.06227.0365.1793.09663.3296.16534l.09556.04295c.41657.18466 1.02533.41228 1.49021.45522a6.97868 6.97868 0 0 1 .99205.14816c.6313.19326 1.06827.70431 1.02747 1.27334l-.02255.1342c.00645-.02576.00967-.0483.01289-.06763a1.02427 1.02427 0 0 1-.01933.10092l.00537-.03328a1.24439 1.24439 0 0 1-.14709.36181 1.41935 1.41935 0 0 1-.79771.56581 2.29115 2.29115 0 0 1-.64419.06979c-1.5557-.03758-3.11356-.92548-3.11356-.92548l-1.68668 2.4565.41764.24156s2.9654 1.53316 5.33492 1.06183c2.20633-.2727 3.81357-1.78546 3.95422-3.72338.1546-2.14836-1.55248-4.0369-4.10775-4.39764zm-5.37572-4.99136a5.97696 5.97696 0 0 0-2.37811-.49066c-3.33813.00415-6.04234 2.71077-6.04353 6.0489v7.64217h3.43565v-7.64217c-.00118-1.44165 1.16623-2.61147 2.60788-2.61325a2.57674 2.57674 0 0 1 .99419.1997"/>
    <path d="M24.20738 16.4224c-.0408.03759-.07945.07624-.12132.10737-.90763.76579-2.12523 1.0545-3.28006.77777-1.15482-.27673-2.10932-1.08596-2.57129-2.17994h10.17812c.6533-3.5763-1.60642-7.03843-5.14318-7.8799-3.53675-.84146-7.11351 1.23206-8.14079 4.71938-1.02727 3.48732.85425 7.1687 4.28238 8.37892 3.42813 1.2102 7.20385-.47405 8.5936-3.8334.01289-.03114.02363-.06335.0365-.09449h-3.83289l-.00107.0043zm-2.53057-6.21852c1.47433.00057 2.79664.90742 3.32828 2.28256h-6.65657c.532-1.37471 1.85423-2.28108 3.32829-2.28148v-.00108z"/>
  </g>
</svg>
